<?xml version="1.0" encoding="utf-8"?>
<!DOCTYPE svg PUBLIC "-//W3C//DTD SVG 1.0//EN" "http://www.w3.org/TR/2001/REC-SVG-20010904/DTD/svg10.dtd">
<svg version="1.0" xmlns="http://www.w3.org/2000/svg" width="1024px" height="1024px" viewBox="0 0 1024 1024" preserveAspectRatio="xMidYMid meet">
 <g fill="rgb(49 47 24)" stroke="#000000" stroke-width="1">
  <path d="M497 812 c0 -0.5 -1.3 -1 -3 -1 -1.6 0 -3 -0.4 -3 -1 0 -0.5 -0.6 -1 -1.2 -1 -1.6 0 -18.2 -8.2 -18.6 -9.2 -0.2 -0.5 -1.1 -0.8 -2.1 -0.8 -0.9 0 -2.3 -0.9 -3.1 -2 -0.8 -1.1 -2.2 -2 -3.2 -2 -1 0 -1.8 -0.4 -1.8 -1 0 -0.5 -0.9 -1 -2 -1 -1.1 0 -2 -0.4 -2 -0.9 0 -0.5 -0.8 -1.1 -1.7 -1.4 -2.4 -0.8 -7.7 -4 -8.1 -4.9 -0.2 -0.5 -1 -0.8 -1.8 -0.8 -0.8 0 -2.4 -0.9 -3.6 -2 -1.2 -1.1 -2.8 -2 -3.5 -2 -0.7 0 -1.3 -0.4 -1.3 -1 0 -0.5 -0.9 -1 -1.9 -1 -1.1 0 -2.1 -0.3 -2.3 -0.7 -0.4 -1 -5.7 -4.2 -8 -5 -1 -0.3 -1.8 -0.9 -1.8 -1.4 0 -0.5 -0.9 -0.9 -2 -0.9 -1.1 0 -2 -0.4 -2 -1 0 -0.5 -0.9 -1 -2 -1 -1.1 0 -2 -0.4 -2 -0.8 0 -0.5 -1.2 -1.5 -2.7 -2.3 -1.6 -0.8 -3.7 -2.2 -4.7 -3.1 -1.1 -1 -2.5 -1.8 -3.2 -1.8 -0.7 0 -1.4 -0.3 -1.6 -0.7 -0.4 -1 -5.7 -4.2 -8 -5 -1 -0.3 -1.8 -0.9 -1.8 -1.4 0 -0.5 -0.9 -0.9 -1.9 -0.9 -1.1 0 -2.1 -0.3 -2.3 -0.7 -0.4 -1 -5.7 -4.2 -8 -5 -1 -0.3 -1.8 -0.9 -1.8 -1.4 0 -0.5 -0.9 -0.9 -2 -0.9 -1.1 0 -2 -0.4 -2 -1 0 -0.5 -0.6 -1 -1.3 -1 -0.7 0 -2.2 -0.8 -3.3 -1.7 -2.5 -2.3 -6.9 -4.9 -11.6 -7.1 -2.1 -0.9 -3.8 -2 -3.8 -2.4 0 -0.5 -0.6 -0.8 -1.3 -0.8 -0.7 0 -2.2 -0.8 -3.3 -1.7 -2.5 -2.3 -7.4 -5.3 -9.7 -6 -0.9 -0.3 -1.7 -0.9 -1.7 -1.4 0 -0.5 -0.9 -0.9 -2 -0.9 -1.1 0 -2 -0.4 -2 -1 0 -0.5 -0.6 -1 -1.3 -1 -0.7 0 -2.2 -0.8 -3.3 -1.7 -2.5 -2.3 -7.4 -5.3 -9.7 -6 -0.9 -0.3 -1.7 -0.9 -1.7 -1.4 0 -0.5 -0.9 -0.9 -2 -0.9 -1.1 0 -2 -0.4 -2 -0.8 0 -0.5 -1.2 -1.5 -2.7 -2.3 -1.6 -0.8 -3 -1.6 -3.3 -1.9 -1 -1 -6.5 -4.1 -8.3 -4.7 -0.9 -0.3 -1.7 -0.9 -1.7 -1.4 0 -0.5 -0.9 -0.9 -2 -0.9 -1.1 0 -2 -0.4 -2 -1 0 -0.5 -0.6 -1 -1.3 -1 -0.7 0 -2.2 -0.8 -3.3 -1.7 -1.9 -1.7 -3.9 -3 -8.9 -5.7 -1.1 -0.6 -2.2 -1.3 -2.5 -1.6 -0.3 -0.3 -1.5 -1.1 -2.7 -1.7 -1.3 -0.7 -3.3 -1.9 -4.5 -2.5 -6.4 -3.7 -20.7 -18.4 -20.8 -21.5 0 -0.6 -0.3 -1.3 -0.7 -1.5 -0.5 -0.1 -1.9 -2.5 -3.2 -5.3 -1.3 -2.7 -2.7 -5.8 -3.2 -6.7 -0.5 -1 -0.9 -3.1 -0.9 -4.8 0 -1.6 -0.4 -3 -1 -3 -1.4 0 -1.4 -257.6 0 -258.5 0.5 -0.3 1 -1.9 1 -3.5 0 -1.6 0.5 -3.2 1 -3.5 0.6 -0.3 1 -1.5 1 -2.6 0 -1 0.5 -1.9 1 -1.9 0.6 0 1 -0.9 1 -2 0 -1.1 0.5 -2 1 -2 0.6 0 1 -0.6 1 -1.2 0 -0.7 1.4 -2.9 3 -4.8 1.6 -1.9 3 -3.9 3 -4.3 0 -1 6.7 -7.7 7.8 -7.7 0.4 0 2.8 -1.8 5.2 -4 2.4 -2.2 5 -4 5.7 -4 0.7 0 1.3 -0.4 1.3 -0.9 0 -0.5 0.8 -1.1 1.8 -1.4 1.7 -0.6 7.2 -3.7 8.2 -4.7 1 -1 6.5 -4.1 8.3 -4.7 0.9 -0.3 1.7 -0.9 1.7 -1.4 0 -0.5 0.9 -0.9 2 -0.9 1.1 0 2 -0.4 2 -0.9 0 -0.5 0.8 -1.1 1.8 -1.4 1.7 -0.6 7.2 -3.7 8.2 -4.7 0.3 -0.3 1.7 -1.1 3.3 -1.9 1.5 -0.8 2.7 -1.8 2.7 -2.3 0 -0.4 0.9 -0.8 2 -0.8 1.1 0 2 -0.4 2 -1 0 -0.5 0.9 -1 2 -1 1.1 0 2 -0.4 2 -1 0 -0.5 0.7 -1 1.5 -1 0.9 0 2.5 -0.9 3.7 -2 1.2 -1.1 2.8 -2 3.5 -2 0.7 0 1.3 -0.4 1.3 -1 0 -0.5 0.9 -1 1.9 -1 1.1 0 2.1 -0.3 2.3 -0.7 0.4 -1 5.7 -4.2 8.1 -5 0.9 -0.3 1.7 -0.9 1.7 -1.4 0 -0.5 0.7 -0.9 1.5 -0.9 0.9 0 2.5 -0.9 3.7 -2 1.2 -1.1 2.8 -2 3.5 -2 0.7 0 1.3 -0.4 1.3 -1 0 -0.5 0.7 -1 1.5 -1 0.9 0 2.5 -0.9 3.7 -2 1.2 -1.1 2.8 -2 3.5 -2 0.7 0 1.3 -0.4 1.3 -1 0 -0.5 0.9 -1 2 -1 1.1 0 2 -0.4 2 -0.9 0 -0.5 0.8 -1.1 1.7 -1.4 2.4 -0.8 7.7 -4 8.1 -4.9 0.2 -0.5 1.2 -0.8 2.3 -0.8 1 0 1.9 -0.4 1.9 -0.9 0 -0.5 0.8 -1.1 1.8 -1.4 1.7 -0.6 7.2 -3.7 8.2 -4.7 0.3 -0.3 1.7 -1.1 3.3 -1.9 1.5 -0.8 2.7 -1.8 2.7 -2.3 0 -0.4 0.9 -0.8 2 -0.8 1.1 0 2 -0.4 2 -1 0 -0.5 0.6 -1 1.3 -1 0.7 0 2.3 -0.9 3.5 -2 1.2 -1.1 2.8 -2 3.7 -2 0.8 0 1.5 -0.4 1.5 -1 0 -0.5 0.9 -1 2 -1 1.1 0 2 -0.4 2 -1 0 -0.5 0.9 -1 2 -1 1.1 0 2 -0.4 2 -0.8 0 -0.5 1.2 -1.5 2.8 -2.3 1.5 -0.8 2.9 -1.6 3.2 -1.9 1 -1 6.5 -4.1 8.3 -4.7 0.9 -0.3 1.7 -0.9 1.7 -1.4 0 -0.5 0.9 -0.9 2 -0.9 1.1 0 2 -0.4 2 -1 0 -0.5 0.7 -1 1.5 -1 0.9 0 2.5 -0.9 3.7 -2 1.2 -1.1 2.8 -2 3.5 -2 0.7 0 1.3 -0.4 1.3 -1 0 -0.5 0.7 -1 1.5 -1 0.9 0 2.5 -0.9 3.7 -2 1.2 -1.1 2.8 -2 3.5 -2 0.7 0 1.3 -0.4 1.3 -1 0 -0.5 0.9 -1 2 -1 1.1 0 2 -0.4 2 -0.9 0 -0.5 0.8 -1.1 1.8 -1.4 1.7 -0.6 7.2 -3.7 8.2 -4.7 0.3 -0.3 2.8 -1.6 5.5 -2.9 2.8 -1.3 5.8 -2.7 6.7 -3.2 1 -0.5 2.7 -0.9 3.8 -0.9 1.1 0 2 -0.4 2 -1 0 -0.6 6 -1 15.9 -1 9.6 0 16.2 0.4 16.6 1 0.3 0.6 1.7 1 3.1 1 1.3 0 3.2 0.4 4.2 0.9 0.9 0.5 3.2 1.6 4.9 2.3 1.8 0.7 3.3 1.6 3.3 2 0 0.5 0.6 0.8 1.3 0.8 0.7 0 2.3 0.9 3.5 2 1.2 1.1 2.8 2 3.7 2 0.8 0 1.5 0.5 1.5 1 0 0.6 0.9 1 2 1 1.1 0 2 0.5 2 1 0 0.6 0.6 1 1.3 1 0.7 0 2.3 0.9 3.5 2 1.2 1.1 2.8 2 3.7 2 0.8 0 1.5 0.5 1.5 1 0 0.6 0.7 1 1.5 1 0.9 0 2.5 0.9 3.7 2 1.2 1.1 2.8 2 3.5 2 0.7 0 1.3 0.5 1.3 1 0 0.6 0.9 1 2 1 1.1 0 2 0.4 2 0.9 0 0.5 0.8 1.1 1.8 1.4 2.3 0.8 7.6 4 8 5 0.2 0.4 1.2 0.7 2.3 0.7 1 0 1.9 0.5 1.9 1 0 0.6 0.9 1 2 1 1.1 0 2 0.4 2 0.8 0 0.5 1.2 1.5 2.8 2.3 1.5 0.8 2.9 1.6 3.2 1.9 0.6 0.6 4.3 2.7 9.5 5.4 2.2 1.2 4.2 2.3 4.5 2.6 1 1 6.5 4.1 8.3 4.7 0.9 0.3 1.7 0.9 1.7 1.4 0 0.5 0.9 0.9 2 0.9 1.1 0 2 0.4 2 0.9 0 0.5 0.8 1.1 1.8 1.4 1.7 0.6 7.2 3.7 8.2 4.7 1 1 6.5 4.1 8.3 4.7 0.9 0.3 1.7 0.9 1.7 1.4 0 0.5 0.7 0.9 1.5 0.9 0.9 0 2.5 0.9 3.7 2 1.2 1.1 2.8 2 3.5 2 0.7 0 1.3 0.5 1.3 1 0 0.6 0.9 1 2 1 1.1 0 2 0.5 2 1 0 0.6 0.7 1 1.5 1 0.9 0 2.5 0.9 3.7 2 1.2 1.1 2.8 2 3.5 2 0.7 0 1.3 0.5 1.3 1 0 0.6 0.9 1 1.9 1 1.1 0 2.1 0.3 2.3 0.8 0.4 0.9 5.7 4.1 8.1 4.9 0.9 0.3 1.7 0.9 1.7 1.4 0 0.5 0.7 0.9 1.5 0.9 0.9 0 2.5 0.9 3.7 2 1.2 1.1 2.8 2 3.5 2 0.7 0 1.3 0.5 1.3 1 0 0.6 0.9 1 1.9 1 1.1 0 2.1 0.3 2.3 0.8 0.4 0.9 5.7 4.1 8.1 4.9 0.9 0.3 1.7 0.9 1.7 1.4 0 0.5 0.9 0.9 2 0.9 1.1 0 2 0.5 2 1 0 0.6 0.7 1 1.5 1 0.9 0 2.5 0.9 3.7 2 1.2 1.1 2.8 2 3.5 2 0.7 0 1.3 0.5 1.3 1 0 0.6 0.9 1 2 1 1.1 0 2 0.4 2 0.8 0 0.5 1.2 1.5 2.8 2.3 1.5 0.8 2.9 1.6 3.2 1.9 1 1 6.5 4.1 8.3 4.7 0.9 0.3 1.7 0.9 1.7 1.4 0 0.5 0.6 0.9 1.3 0.9 0.7 0 2.3 0.9 3.5 2 1.2 1.1 2.5 2 3 2 1.2 0 12.2 10.6 12.2 11.7 0 0.5 0.8 1.8 1.8 2.9 2 2.3 3.8 5.3 6.5 10.9 1.1 2.2 2.3 4.8 2.8 5.7 0.5 1 0.9 3 0.9 4.6 0 1.5 0.4 3.2 0.9 3.7 1.8 2 2.4 36.7 2.5 137 0.1 96.5 -0.5 123.8 -2.6 125.1 -0.4 0.3 -0.8 1.6 -0.8 2.9 0 1.3 -0.4 2.7 -1 3 -0.5 0.3 -1 1.5 -1 2.6 0 1 -0.4 1.9 -0.9 1.9 -0.5 0 -1.1 0.8 -1.4 1.8 -0.3 0.9 -1.4 3 -2.4 4.6 -2.1 3.5 -15.9 17.6 -17.1 17.6 -0.5 0 -1.7 0.8 -2.8 1.8 -2.5 2.2 -7.4 5.2 -9.6 5.9 -1 0.3 -1.8 0.9 -1.8 1.4 0 0.5 -0.6 0.9 -1.3 0.9 -0.7 0 -2.3 0.9 -3.5 2 -1.2 1.1 -2.8 2 -3.7 2 -0.8 0 -1.5 0.3 -1.5 0.8 0 0.4 -1.7 1.5 -3.7 2.4 -4.8 2.2 -9.2 4.8 -11.7 7.1 -1.1 0.9 -2.5 1.7 -3.2 1.7 -0.7 0 -1.4 0.3 -1.6 0.8 -0.4 0.9 -5.7 4.1 -8 4.9 -1 0.3 -1.8 0.9 -1.8 1.4 0 0.5 -0.8 0.9 -1.8 0.9 -1 0 -2.4 0.9 -3.2 2 -0.8 1.1 -2.2 2 -3.2 2 -1 0 -1.8 0.5 -1.8 1 0 0.6 -0.9 1 -1.9 1 -1.1 0 -2.1 0.3 -2.3 0.8 -0.1 0.4 -2.4 1.8 -5 3.1 -2.7 1.3 -4.8 2.8 -4.8 3.3 0 0.4 -0.6 0.8 -1.3 0.8 -0.7 0 -2.3 0.9 -3.5 2 -1.2 1.1 -2.8 2 -3.7 2 -0.8 0 -1.5 0.4 -1.5 0.9 0 0.5 -0.8 1.1 -1.7 1.4 -1.8 0.6 -7.3 3.7 -8.3 4.7 -1 1 -6.5 4.1 -8.2 4.7 -1 0.3 -1.8 0.9 -1.8 1.4 0 0.5 -0.9 0.9 -2 0.9 -1.1 0 -2 0.5 -2 1 0 0.6 -0.6 1 -1.3 1 -0.7 0 -2.2 0.8 -3.3 1.8 -2.5 2.2 -7.4 5.2 -9.6 5.9 -1 0.3 -1.8 0.9 -1.8 1.4 0 0.5 -0.9 0.9 -2 0.9 -1.1 0 -2 0.5 -2 1 0 0.6 -0.6 1 -1.3 1 -0.7 0 -2.2 0.8 -3.3 1.8 -1.6 1.4 -8.3 5.2 -17.1 9.6 -1.3 0.6 -2.3 1.4 -2.3 1.9 0 0.4 -0.6 0.7 -1.3 0.7 -0.7 0 -2.2 0.8 -3.3 1.8 -1 0.9 -3.1 2.3 -4.6 3.1 -1.6 0.8 -2.8 1.8 -2.8 2.3 0 0.4 -0.9 0.8 -2 0.8 -1.1 0 -2 0.5 -2 1 0 0.6 -0.9 1 -2 1 -1.1 0 -2 0.4 -2 0.9 0 0.5 -0.8 1.1 -1.7 1.4 -2.4 0.8 -7.7 4 -8.1 5 -0.2 0.4 -1.2 0.7 -2.3 0.7 -1 0 -1.9 0.5 -1.9 1 0 0.6 -0.6 1 -1.3 1 -0.7 0 -2.3 0.9 -3.5 2 -1.2 1.1 -2.8 2 -3.6 2 -0.8 0 -1.6 0.3 -1.8 0.8 -0.4 0.9 -5.7 4.1 -8 4.9 -1 0.3 -1.8 0.9 -1.8 1.4 0 0.5 -0.9 0.9 -2 0.9 -1.1 0 -2 0.5 -2 1 0 0.6 -0.9 1 -2 1 -1.1 0 -2 0.5 -2 1 0 0.6 -1.1 1 -2.4 1 -1.4 0 -2.8 0.5 -3.1 1 -0.3 0.6 -1.7 1 -3 1 -1.3 0 -2.7 0.5 -3 1 -0.4 0.6 -6.7 1 -15.6 1 -9.3 0 -14.9 -0.4 -14.9 -1z m-25.5 -156.4 c3.5 -0.6 12.1 -4.2 13.5 -5.6 0.3 -0.3 1.4 -1 2.4 -1.6 1.1 -0.6 2.4 -1.9 3 -2.9 0.6 -1 1.9 -2.8 2.9 -3.9 0.9 -1.1 1.7 -2.9 1.7 -4.1 0 -1.1 0.5 -2.6 1.1 -3.2 0.7 -0.7 0.9 -4.4 0.5 -10.9 -0.3 -5.5 -0.9 -22.6 -1.2 -38.1 -0.3 -15.6 -1 -28.3 -1.4 -28.3 -0.4 0 -1 -0.9 -1.3 -2 -0.3 -1.1 -1.2 -2 -2.1 -2 -0.9 0 -1.6 -0.4 -1.6 -1 0 -0.6 -5.4 -1 -14.2 -1 -13.6 0 -14.4 0.1 -17 2.4 -1.6 1.3 -2.8 3 -2.8 3.9 0 0.9 -0.4 1.9 -1 2.2 -0.6 0.4 -1 9.7 -1 24.6 0 19.5 -0.3 24.3 -1.4 25.5 -1.2 1.2 -11 1.4 -62.7 1.4 l-61.3 0 -2.3 -2.2 -2.3 -2.1 0 -98.4 c0 -76.8 0.3 -98.8 1.3 -100.5 1.9 -3.4 3.4 -4.8 5.1 -4.8 0.9 0 1.6 -0.4 1.6 -1 0 -0.5 0.9 -1 2 -1 1.1 0 2 -0.4 2 -1 0 -0.5 0.9 -1 1.9 -1 1.1 0 2.1 -0.3 2.3 -0.7 0.4 -1 5.7 -4.2 8.1 -5 0.9 -0.3 1.7 -0.9 1.7 -1.4 0 -0.5 0.9 -0.9 2 -0.9 1.1 0 2 -0.4 2 -0.8 0 -0.4 2.2 -1.9 5 -3.3 2.7 -1.3 5 -2.7 5 -3.1 0 -0.5 0.9 -0.8 1.9 -0.8 1.1 0 2.1 -0.3 2.3 -0.7 0.4 -1 5.7 -4.2 8.1 -5 0.9 -0.3 1.7 -0.9 1.7 -1.4 0 -0.5 0.7 -0.9 1.5 -0.9 0.9 0 2.5 -0.9 3.7 -2 1.2 -1.1 2.8 -2 3.5 -2 0.7 0 1.3 -0.4 1.3 -1 0 -0.5 0.9 -1 2 -1 1.1 0 2 -0.4 2 -1 0 -0.5 0.9 -1 2 -1 1.1 0 2 -0.4 2 -1 0 -0.5 0.7 -1 1.5 -1 0.9 0 2.5 -0.9 3.7 -2 1.2 -1.1 2.8 -2 3.5 -2 0.7 0 1.3 -0.4 1.3 -1 0 -0.5 0.9 -1 2 -1 1.1 0 2 -0.4 2 -0.9 0 -0.5 0.8 -1.1 1.8 -1.4 2.3 -0.8 7.6 -4 8 -4.9 0.2 -0.5 1.2 -0.8 2.3 -0.8 1 0 1.9 -0.4 1.9 -0.9 0 -0.5 0.8 -1.1 1.8 -1.4 1.7 -0.6 7.2 -3.7 8.2 -4.7 0.3 -0.3 1.7 -1.1 3.3 -1.9 1.5 -0.8 2.7 -1.8 2.7 -2.3 0 -0.4 0.9 -0.8 2 -0.8 1.1 0 2 -0.4 2 -1 0 -0.5 0.9 -1 2 -1 1.1 0 2 -0.5 2 -1.1 0 -1.6 4.2 -0.6 5.3 1.3 0.8 1.1 0.7 2.7 -0.2 5.5 -0.9 2.6 -1.1 7.1 -0.6 14.8 0.3 6.1 0.8 30 1.1 53.3 l0.4 42.3 2.7 4 c1.4 2.1 3.2 3.9 3.9 3.9 0.8 0 1.4 0.5 1.4 1 0 1.5 24.5 1.3 27.2 -0.2 7.3 -4.2 6.9 0.4 6.4 -87.3 -0.4 -75.8 -0.7 -86.8 -2.7 -89 -0.5 -0.5 -0.9 -1.5 -0.9 -2.2 0 -1.9 -6.1 -7.8 -10.5 -10.3 -3.8 -2.1 -11.9 -2.7 -13 -1 -0.3 0.6 -1.4 1 -2.5 1 -2.2 0 -10 4 -10 5.2 0 0.4 -0.6 0.8 -1.3 0.8 -0.7 0 -2.3 0.9 -3.5 2 -1.2 1.1 -2.8 2 -3.7 2 -0.8 0 -1.5 0.5 -1.5 1 0 0.6 -0.9 1 -2 1 -1.1 0 -2 0.5 -2 1 0 0.6 -0.6 1 -1.2 1 -0.7 0 -2.9 1.4 -4.8 3 -1.9 1.6 -4.1 3 -4.7 3 -0.7 0 -1.3 0.5 -1.3 1 0 0.6 -0.9 1 -2 1 -1.1 0 -2 0.5 -2 1 0 0.6 -0.9 1 -2 1 -1.1 0 -2 0.5 -2 1 0 0.6 -0.6 1 -1.3 1 -0.7 0 -2.2 0.8 -3.3 1.8 -1 0.9 -3.1 2.3 -4.6 3.1 -1.6 0.8 -2.8 1.8 -2.8 2.3 0 0.4 -0.7 0.8 -1.5 0.8 -0.9 0 -2.5 0.9 -3.7 2 -1.2 1.1 -2.8 2 -3.5 2 -0.7 0 -1.3 0.5 -1.3 1 0 0.6 -0.7 1 -1.5 1 -0.9 0 -2.5 0.9 -3.7 2 -1.2 1.1 -2.8 2 -3.5 2 -0.7 0 -1.3 0.5 -1.3 1 0 0.6 -0.9 1 -2 1 -1.1 0 -2 0.5 -2 1 0 0.6 -0.9 1 -2 1 -1.1 0 -2 0.5 -2 1 0 0.6 -0.6 1 -1.3 1 -0.7 0 -2.2 0.8 -3.3 1.8 -2.5 2.2 -7.4 5.2 -9.6 5.9 -1 0.3 -1.8 0.9 -1.8 1.4 0 0.5 -0.9 0.9 -2 0.9 -1.1 0 -2 0.5 -2 1 0 0.6 -0.7 1 -1.5 1 -0.9 0 -2.5 0.9 -3.7 2 -1.2 1.1 -2.8 2 -3.5 2 -0.7 0 -1.3 0.5 -1.3 1 0 0.6 -0.9 1 -1.9 1 -1.1 0 -2.1 0.3 -2.3 0.8 -0.4 0.9 -5.7 4.1 -8 4.9 -1 0.3 -1.8 0.9 -1.8 1.4 0 0.5 -0.9 0.9 -2 0.9 -1.1 0 -2 0.5 -2 1 0 0.6 -0.9 1 -1.9 1 -1.1 0 -2.1 0.3 -2.3 0.8 -0.4 0.9 -5.7 4.1 -8 4.9 -1 0.3 -1.8 0.9 -1.8 1.4 0 0.5 -0.9 0.9 -2 0.9 -1.1 0 -2 0.4 -2 0.9 0 0.5 -0.8 1.1 -1.7 1.4 -2.4 0.8 -7.7 4 -8.1 5 -0.2 0.4 -1.2 0.7 -2.3 0.7 -1 0 -1.9 0.5 -1.9 1 0 0.6 -0.6 1 -1.3 1 -0.7 0 -2.3 0.9 -3.5 2 -1.2 1.1 -2.5 2 -3 2 -1.2 0 -6.2 5.4 -6.2 6.8 0 0.7 -0.3 1.2 -0.8 1.2 -0.4 0 -1.3 1.5 -2 3.2 -0.7 1.8 -1.8 4.1 -2.3 5 -1.3 2.5 -1.2 243.5 0.1 244.3 0.6 0.3 1 1.7 1 3.1 0 1.3 0.5 2.4 1 2.4 0.6 0 1 0.7 1 1.6 0 4.2 14.2 14.4 20 14.4 1.6 0 3.2 0.5 3.5 1 0.7 1.2 156.1 0.8 163 -0.4z m249 -0.3 c6.3 -1.6 8.5 -2.5 8.5 -3.4 0 -0.5 0.6 -0.9 1.3 -0.9 1.7 0 6 -4 7.6 -7.2 0.8 -1.6 1.8 -2.8 2.3 -2.8 0.4 0 0.8 -0.9 0.8 -2 0 -1.1 0.4 -2 0.9 -2 0.5 0 1.2 -1.9 1.6 -4.2 1.1 -5.8 1.3 -131.8 0.3 -132.4 -0.4 -0.3 -0.8 -2.1 -0.8 -3.9 0 -5.5 -6.7 -15.5 -10.4 -15.5 -0.8 0 -1.8 -0.4 -2.1 -1 -0.3 -0.5 -2.1 -1 -4 -1 -1.9 0 -3.7 -0.4 -4 -1 -0.4 -0.7 -25.6 -1 -72.4 -1 -53.7 0 -72.3 -0.3 -74.2 -1.2 -5 -2.4 -5.1 -2.9 -4.5 -57.5 0.4 -27.9 0.9 -56.6 1.2 -63.7 0.3 -9 0.2 -13.8 -0.7 -15.8 -1 -2.4 -0.9 -3.2 0.2 -4.4 1.2 -1.2 1.9 -1.2 4.2 -0.2 1.5 0.7 2.7 1.6 2.7 2.1 0 0.4 0.6 0.7 1.3 0.7 0.6 0 2.8 1.4 4.7 3 1.9 1.6 3.9 3 4.3 3 0.4 0 1.7 0.9 2.9 2 1.2 1.1 2.8 2 3.5 2 0.7 0 1.3 0.5 1.3 1 0 0.6 0.7 1 1.5 1 0.9 0 2.5 0.9 3.7 2 1.2 1.1 2.8 2 3.5 2 0.7 0 1.3 0.5 1.3 1 0 0.6 0.6 1 1.3 1 0.7 0 2.3 0.9 3.5 2 1.2 1.1 2.8 2 3.7 2 0.8 0 1.5 0.4 1.5 0.9 0 0.5 0.8 1.1 1.8 1.4 1.7 0.6 7.2 3.7 8.2 4.7 1 1 6.5 4.1 8.3 4.7 0.9 0.3 1.7 0.9 1.7 1.4 0 0.5 0.7 0.9 1.5 0.9 0.9 0 2.5 0.9 3.7 2 1.2 1.1 2.8 2 3.5 2 0.7 0 1.3 0.5 1.3 1 0 0.6 0.7 1 1.5 1 0.9 0 2.5 0.9 3.7 2 1.2 1.1 2.8 2 3.5 2 0.7 0 1.3 0.5 1.3 1 0 0.6 0.9 1 2 1 1.1 0 2 0.5 2 1 0 0.6 0.6 1 1.3 1 0.7 0 2.3 0.9 3.5 2 1.2 1.1 2.8 2 3.7 2 0.8 0 1.5 0.5 1.5 1 0 0.6 0.9 1 2 1 1.1 0 2 0.4 2 0.9 0 0.5 0.8 1.1 1.8 1.4 2.3 0.8 7.6 4 8 5 0.2 0.4 1 0.7 1.8 0.7 0.8 0 2.4 0.9 3.6 2 1.2 1.1 2.8 2 3.5 2 0.7 0 1.3 0.5 1.3 1 0 0.6 0.9 1 2 1 1.1 0 2 0.5 2 1 0 0.6 0.6 1 1.3 1 0.7 0 2.2 0.8 3.3 1.8 2.5 2.2 7.4 5.2 9.7 5.9 0.9 0.3 1.7 0.9 1.7 1.4 0 0.5 0.9 0.9 2 0.9 1.1 0 2 0.5 2 1 0 0.6 3.4 1 8.3 1 8.9 0 11.8 -1.4 14.4 -7 1.5 -3.3 2.4 -16.5 1.6 -24 -0.5 -5.3 -1.1 -6.5 -4.8 -10.5 -2.4 -2.5 -4.8 -4.5 -5.4 -4.5 -0.7 0 -2.1 -0.9 -3.3 -2 -1.2 -1.1 -2.8 -2 -3.5 -2 -0.7 0 -1.3 -0.4 -1.3 -1 0 -0.5 -0.9 -1 -2 -1 -1.1 0 -2 -0.4 -2 -0.9 0 -0.5 -0.8 -1.1 -1.7 -1.4 -2.4 -0.8 -7.7 -4 -8.1 -4.9 -0.2 -0.5 -1 -0.8 -1.8 -0.8 -0.8 0 -2.4 -0.9 -3.6 -2 -1.2 -1.1 -2.8 -2 -3.5 -2 -0.7 0 -1.3 -0.4 -1.3 -1 0 -0.5 -0.9 -1 -2 -1 -1.1 0 -2 -0.4 -2 -1 0 -0.5 -0.7 -1 -1.5 -1 -0.9 0 -2.5 -0.9 -3.7 -2 -1.2 -1.1 -2.8 -2 -3.5 -2 -0.7 0 -1.3 -0.4 -1.3 -1 0 -0.5 -0.9 -1 -2 -1 -1.1 0 -2 -0.4 -2 -1 0 -0.5 -0.9 -1 -2 -1 -1.1 0 -2 -0.4 -2 -1 0 -0.5 -0.9 -1 -2 -1 -1.1 0 -2 -0.4 -2 -0.8 0 -0.5 -2.1 -2 -4.7 -3.3 -2.7 -1.3 -4.9 -2.7 -5.1 -3.1 -0.2 -0.5 -1 -0.8 -1.8 -0.8 -0.8 0 -2.4 -0.9 -3.6 -2 -1.2 -1.1 -2.8 -2 -3.5 -2 -0.7 0 -1.3 -0.4 -1.3 -1 0 -0.5 -0.9 -1 -2 -1 -1.1 0 -2 -0.4 -2 -0.8 0 -0.5 -1.2 -1.5 -2.7 -2.3 -1.6 -0.8 -3 -1.6 -3.3 -1.9 -0.3 -0.3 -2.3 -1.4 -4.5 -2.6 -5.2 -2.7 -8.9 -4.8 -9.5 -5.4 -0.3 -0.3 -1.7 -1.1 -3.2 -1.9 -1.6 -0.8 -2.8 -1.8 -2.8 -2.3 0 -0.4 -0.7 -0.8 -1.5 -0.8 -0.9 0 -2.5 -0.9 -3.7 -2 -1.2 -1.1 -2.8 -2 -3.5 -2 -0.7 0 -1.3 -0.4 -1.3 -1 0 -0.5 -0.6 -1 -1.3 -1 -0.7 0 -2.3 -0.9 -3.5 -2 -1.2 -1.1 -2.8 -2 -3.7 -2 -0.8 0 -1.5 -0.4 -1.5 -0.9 0 -0.5 -0.8 -1.1 -1.7 -1.4 -2.3 -0.7 -7.2 -3.7 -9.7 -5.9 -1.1 -1 -2.6 -1.8 -3.3 -1.8 -0.7 0 -1.3 -0.4 -1.3 -1 0 -0.5 -0.7 -1 -1.5 -1 -0.9 0 -2.5 -0.9 -3.7 -2 -1.2 -1.1 -2.8 -2 -3.5 -2 -0.7 0 -1.3 -0.4 -1.3 -0.9 0 -0.5 -0.8 -1.1 -1.7 -1.4 -1.8 -0.6 -7.3 -3.7 -8.3 -4.7 -1.2 -1.2 -5.1 -3 -6.5 -3 -0.8 0 -1.5 -0.4 -1.5 -1 0 -0.5 -1.1 -1 -2.4 -1 -1.4 0 -2.8 -0.5 -3.1 -1 -0.3 -0.5 -2.8 -1 -5.5 -1 -2.7 0 -5.2 0.5 -5.5 1 -0.3 0.5 -1.3 1 -2.1 1 -0.9 0 -3.5 1.3 -5.9 3 -4.5 3.1 -7.5 7.7 -7.5 11.6 0 1.3 -0.4 2.6 -1 2.9 -0.7 0.4 -1 36.5 -1 105 0 68.5 0.3 104.6 1 105 0.6 0.3 1 1.5 1 2.6 0 2.2 4.8 9.9 6.2 9.9 0.5 0 1.8 0.9 3 2 1.2 1.1 2.8 2 3.5 2 0.7 0 1.3 0.5 1.3 1 0 0.6 1.3 1 2.8 1 1.5 0 3.2 0.4 3.8 0.9 1.3 1.4 22.3 2 88.7 2.7 34.2 0.3 58.7 1 58.7 1.5 0 0.5 0.6 0.9 1.4 0.9 0.8 0 2.2 1.4 3 3.2 1.4 2.7 1.6 8.1 1.4 39.7 -0.2 43.4 0.1 42.1 -9.4 43.4 -3.2 0.5 -38.3 1.1 -77.9 1.3 -43.5 0.3 -72.4 0.9 -72.9 1.4 -0.6 0.6 -1.8 1 -2.8 1 -3.5 0 -8.8 3.9 -8.8 6.4 0 0.9 -0.4 1.6 -1 1.6 -0.6 0 -1 4.3 -1 11 0 6.7 0.4 11 1 11 0.6 0 1 0.7 1 1.5 0 2.3 3 6.5 4.6 6.5 0.8 0 1.4 0.5 1.4 1 0 0.6 1.7 1 3.8 1 2 0 4.4 0.5 5.2 1 2.1 1.3 169.1 0.7 174.5 -0.7z"/>
 </g>
</svg>